<mxfile host="app.diagrams.net" modified="2023-04-10T16:04:41.671Z" agent="Mozilla/5.0 (Windows NT 10.0; Win64; x64) AppleWebKit/537.36 (KHTML, like Gecko) Chrome/110.0.0.0 Safari/537.36" version="21.1.5" etag="tT20lZgwJOm8xv-ASaQf" type="github">
  <diagram name="第 1 页" id="xfO6UinNjo_e6KHixS12">
    <mxGraphModel>
      <root>
        <mxCell id="0" />
        <mxCell id="1" parent="0" />
      </root>
    </mxGraphModel>
  </diagram>
</mxfile>
